<?xml version="1.0" standalone="no"?>
<!DOCTYPE svg PUBLIC "-//W3C//DTD SVG 20010904//EN"
 "http://www.w3.org/TR/2001/REC-SVG-20010904/DTD/svg10.dtd">
<svg version="1.0" xmlns="http://www.w3.org/2000/svg"
 width="1024.000000pt" height="1024.000000pt" viewBox="0 0 1024.000000 1024.000000"
 preserveAspectRatio="xMidYMid meet">
<metadata>
Created by potrace 1.14, written by Peter Selinger 2001-2017
</metadata>
<g transform="translate(0.000000,1024.000000) scale(0.100000,-0.100000)"
fill="#000000" stroke="none">
<path d="M0 5120 l0 -5120 5120 0 5120 0 0 5120 0 5120 -5120 0 -5120 0 0
-5120z m5480 3791 c591 -92 1041 -284 1515 -646 359 -273 705 -726 895 -1169
73 -172 106 -271 150 -449 49 -199 66 -312 82 -548 30 -466 -42 -897 -224
-1334 -28 -66 -66 -151 -85 -190 -117 -231 -331 -537 -508 -723 -435 -457
-1037 -787 -1652 -906 -236 -45 -305 -51 -593 -50 -305 0 -385 8 -622 60 -277
61 -467 126 -725 250 -183 87 -238 119 -408 240 -486 344 -864 811 -1081 1336
-98 237 -144 403 -184 668 -49 318 -46 620 10 945 33 197 35 203 91 390 89
298 225 573 431 873 88 128 276 347 377 440 158 146 196 175 371 291 58 39
116 78 129 88 38 28 167 99 261 144 346 166 794 286 1170 313 129 9 478 -4
600 -23z m3254 -6390 c31 -30 35 -78 7 -112 l-18 -23 -3614 -1 c-2052 -1
-3626 3 -3641 8 -48 15 -57 91 -15 126 9 7 28 16 44 20 15 5 1644 8 3620 7
l3591 -1 26 -24z m-6943 -585 c67 -28 119 -108 119 -183 0 -97 -88 -183 -187
-183 -60 0 -96 15 -134 57 -40 42 -49 66 -49 126 0 131 137 231 251 183z
m6722 -2 c56 -19 108 -75 126 -136 19 -62 -3 -151 -44 -182 -52 -39 -77 -49
-131 -49 -99 0 -173 67 -190 171 -15 97 74 210 167 212 14 0 47 -7 72 -16z
m-5294 -100 c41 -16 54 -34 45 -59 -8 -20 -20 -19 -53 6 -35 26 -74 18 -69
-14 3 -20 18 -27 81 -41 32 -8 60 -59 50 -95 -13 -51 -121 -69 -169 -28 -16
14 -24 29 -20 35 10 16 35 15 52 -3 21 -21 47 -19 75 5 23 19 23 21 6 34 -10
8 -38 17 -62 21 -46 6 -75 32 -75 66 0 25 47 77 73 82 12 2 23 5 24 6 2 0 20
-6 42 -15z m289 -21 c3 -21 -1 -22 -65 -25 -61 -3 -68 -5 -71 -24 -3 -24 19
-34 75 -34 35 0 53 -17 32 -31 -8 -5 -33 -9 -55 -9 -36 0 -42 -3 -46 -25 -3
-13 -3 -27 0 -30 3 -3 32 -5 64 -5 56 0 59 -1 56 -22 -3 -22 -8 -23 -83 -23
l-80 0 -3 114 c-1 63 0 121 2 128 4 10 26 13 88 11 77 -3 83 -5 86 -25z m239
-8 c31 -35 30 -86 -1 -116 -24 -23 -24 -23 -5 -50 10 -15 19 -34 19 -43 0 -34
-52 -10 -75 34 -12 23 -22 30 -45 30 -27 0 -30 -4 -36 -40 -7 -43 -14 -49 -34
-25 -18 22 -10 222 10 236 8 5 44 8 80 5 54 -3 68 -8 87 -31z m124 -55 c23
-49 45 -90 48 -90 3 0 22 40 41 88 22 55 41 87 50 87 27 0 21 -32 -25 -144
-35 -82 -52 -111 -65 -111 -25 0 -32 12 -79 129 -45 112 -48 131 -26 131 8 0
31 -37 56 -90z m247 78 c8 -8 12 -51 12 -125 0 -95 -3 -115 -16 -120 -26 -10
-34 17 -34 124 0 127 8 151 38 121z m266 -9 c49 -39 26 -73 -28 -40 -18 12
-41 21 -50 21 -27 0 -76 -55 -76 -85 0 -28 16 -66 34 -77 18 -13 65 -9 97 7
47 25 69 -4 30 -39 -49 -45 -120 -40 -173 12 -24 22 -28 33 -28 85 0 56 2 62
39 98 33 34 45 39 83 39 31 0 54 -7 72 -21z m261 -4 c0 -17 -8 -21 -65 -25
-61 -5 -65 -7 -65 -29 0 -22 4 -24 49 -25 34 -1 52 -6 60 -18 15 -24 4 -31
-59 -36 -50 -4 -55 -7 -55 -28 0 -23 3 -24 71 -24 67 0 70 -1 67 -22 -3 -22
-7 -23 -88 -23 l-85 0 -3 114 c-1 63 0 121 2 128 4 10 26 13 88 11 75 -3 83
-5 83 -23z m276 -71 l40 -73 43 82 c31 60 48 82 62 82 18 0 19 -9 22 -127 2
-123 2 -128 -18 -128 -16 0 -20 7 -21 33 -1 17 -4 46 -8 62 l-7 30 -25 -50
c-34 -67 -55 -66 -94 5 l-30 55 -5 -65 c-4 -57 -8 -65 -25 -65 -19 0 -20 8
-23 114 -4 169 16 179 89 45z m424 63 c39 -39 51 -87 36 -145 -20 -71 -109
-104 -181 -67 -52 27 -79 104 -56 160 25 59 61 85 118 85 43 0 55 -5 83 -33z
m148 -4 c18 -20 46 -54 62 -77 l30 -41 6 72 c6 81 12 94 36 71 13 -13 15 -37
14 -124 -2 -153 -14 -158 -101 -38 l-55 75 -3 -78 c-3 -86 -15 -110 -38 -79
-10 14 -14 49 -14 122 0 147 8 160 63 97z m467 13 c0 -19 -6 -25 -27 -28 -28
-3 -28 -3 -34 -101 -3 -53 -10 -102 -16 -108 -20 -20 -32 18 -35 112 l-3 94
-30 3 c-39 5 -52 17 -35 37 9 11 33 15 96 15 82 0 84 0 84 -24z m215 2 c54
-42 69 -119 35 -175 -53 -88 -171 -89 -216 -2 -19 37 -18 109 2 138 42 60 129
79 179 39z m266 -1 c44 -29 52 -85 19 -129 l-21 -29 21 -28 c25 -37 25 -51 0
-51 -12 0 -30 16 -46 40 -22 34 -32 40 -60 40 -32 0 -34 -2 -34 -35 0 -38 -25
-59 -41 -34 -12 19 -11 191 1 223 9 24 14 26 68 26 45 0 67 -6 93 -23z m267
-53 c30 -38 58 -70 63 -72 5 -2 9 28 9 67 0 56 3 73 16 78 27 10 34 -17 34
-135 0 -93 -3 -114 -16 -119 -19 -7 -56 27 -102 97 l-37 55 -9 -78 c-7 -64
-11 -77 -25 -75 -13 3 -16 21 -19 118 -4 169 2 173 86 64z m363 47 c16 -16 29
-34 29 -40 0 -21 -21 -22 -46 -2 -35 27 -82 27 -111 -1 -54 -50 -10 -158 59
-144 59 12 80 52 31 58 -20 2 -28 9 -28 23 0 16 8 21 43 23 38 3 43 0 52 -23
27 -72 -8 -116 -98 -123 -54 -4 -59 -2 -89 28 -40 41 -57 102 -39 145 36 84
139 114 197 56z m-1331 -90 c0 -116 -4 -141 -25 -141 -20 0 -25 24 -25 118 0
106 6 132 31 132 17 0 19 -9 19 -109z m828 -6 c2 -114 -5 -142 -32 -132 -13 5
-16 26 -16 127 0 120 0 121 23 118 21 -3 22 -7 25 -113z"/>
<path d="M4870 8764 c-308 -21 -597 -88 -899 -206 -482 -189 -939 -538 -1246
-953 -128 -172 -217 -315 -272 -435 -191 -417 -276 -745 -292 -1135 -13 -294
6 -510 70 -800 27 -124 39 -161 98 -310 74 -184 205 -433 308 -582 330 -479
799 -862 1301 -1062 381 -152 730 -221 1127 -223 180 -1 236 2 393 25 536 80
996 271 1405 585 55 43 111 86 126 96 88 66 303 295 412 439 311 414 458 763
550 1310 43 254 35 666 -16 906 -76 350 -111 458 -225 689 -135 274 -183 355
-309 517 -211 273 -492 532 -751 694 -341 213 -784 378 -1145 426 -115 15
-516 27 -635 19z m395 -104 c314 -24 442 -51 780 -167 413 -141 922 -483 1164
-784 186 -230 343 -473 431 -669 134 -297 227 -681 244 -1005 18 -335 -90
-916 -188 -1011 -68 -66 -101 -114 -168 -241 -76 -145 -103 -182 -37 -52 105
209 175 417 218 649 60 321 65 802 10 1038 -71 308 -189 594 -351 857 -70 111
-103 158 -208 289 -157 196 -437 437 -675 581 -326 197 -751 340 -1115 375
-138 14 -452 13 -577 -1 -211 -23 -510 -95 -708 -170 -77 -30 -322 -149 -395
-192 -143 -85 -380 -271 -538 -422 -320 -306 -588 -770 -701 -1216 -47 -182
-56 -246 -72 -483 -17 -252 5 -497 71 -774 46 -199 149 -480 206 -567 9 -14
14 -28 11 -31 -3 -3 -46 77 -96 178 -52 106 -103 196 -121 213 -16 16 -30 32
-30 36 0 5 -13 30 -28 56 -90 153 -133 405 -132 777 0 270 10 355 75 622 136
553 455 1054 940 1473 273 235 663 440 1030 541 294 80 374 91 755 108 36 1
128 -2 205 -8z m215 -304 c175 -22 308 -52 495 -113 174 -57 384 -151 490
-220 33 -22 79 -52 102 -66 63 -40 288 -222 372 -302 77 -73 226 -246 242
-280 5 -11 23 -38 40 -60 111 -147 174 -256 252 -435 73 -168 87 -207 119
-335 51 -199 62 -269 80 -510 10 -138 9 -184 -6 -330 -20 -204 -26 -234 -78
-440 -61 -239 -146 -440 -280 -665 -73 -122 -91 -146 -219 -300 -226 -270
-531 -508 -839 -654 -180 -85 -255 -115 -405 -161 -216 -67 -339 -92 -515
-106 -169 -13 -517 -7 -635 11 -212 33 -496 115 -721 208 -174 73 -419 223
-577 354 -147 122 -353 334 -427 438 -14 19 -36 48 -49 63 -14 15 -26 33 -27
40 -1 7 -29 53 -61 102 -55 82 -216 398 -241 470 -5 17 -15 56 -22 88 -6 31
-14 57 -18 57 -4 0 -8 16 -9 36 -1 19 -8 42 -15 51 -19 23 -46 186 -59 353
-21 277 5 663 56 829 56 184 86 274 108 321 14 30 35 78 47 105 60 135 203
361 327 517 108 136 355 358 399 358 7 0 39 22 71 48 32 26 83 64 113 83 30
20 83 55 118 77 34 23 65 42 68 42 3 0 18 8 32 19 15 10 38 22 52 25 17 5 12
-1 -15 -17 -259 -155 -499 -345 -620 -490 -16 -19 -57 -64 -91 -99 -54 -56
-85 -98 -211 -282 -124 -182 -253 -473 -313 -705 -30 -118 -59 -304 -66 -416
-3 -55 -7 -116 -9 -135 -7 -70 17 -348 40 -460 64 -309 96 -404 209 -629 105
-210 147 -273 325 -491 118 -145 161 -190 252 -265 144 -118 205 -164 289
-213 47 -28 99 -62 116 -76 17 -14 71 -44 120 -67 49 -23 125 -59 170 -79 85
-40 401 -134 569 -169 262 -55 738 -41 1017 29 405 102 786 286 1045 503 102
86 354 343 417 427 23 30 60 84 81 120 21 36 49 78 63 95 39 47 167 319 210
445 37 109 70 231 107 398 29 132 40 393 26 600 -19 279 -63 459 -180 740 -56
135 -80 180 -184 352 -66 110 -101 153 -223 282 -30 31 -54 61 -54 65 0 8 -68
78 -155 160 -103 97 -338 268 -470 344 -272 154 -669 282 -948 304 -48 4 -90
11 -93 16 -7 13 62 11 196 -5z m-100 -57 c216 -25 442 -88 680 -189 175 -74
279 -133 449 -253 161 -114 400 -342 500 -477 68 -92 56 -81 -89 85 -371 422
-869 699 -1430 796 -148 25 -442 35 -620 21 -324 -27 -676 -137 -996 -314
-163 -90 -396 -266 -539 -409 -67 -65 -124 -119 -129 -119 -28 0 210 253 281
297 15 10 80 56 143 104 244 181 469 292 759 375 327 93 662 121 991 83z
m-887 4 c-7 -2 -21 -2 -30 0 -10 3 -4 5 12 5 17 0 24 -2 18 -5z m-303 -88
c-19 -7 -82 -34 -139 -59 -58 -25 -107 -44 -109 -42 -5 6 139 74 203 97 58 20
98 24 45 4z m988 -705 c42 -52 111 -135 153 -185 318 -378 595 -774 661 -948
43 -114 59 -163 63 -192 2 -16 9 -55 16 -85 16 -76 6 -326 -17 -410 -19 -73
-95 -240 -143 -315 -47 -73 -166 -202 -236 -253 -188 -138 -464 -216 -683
-191 -263 29 -475 136 -625 314 -104 124 -166 233 -212 375 -23 71 -28 108
-33 226 -6 192 13 288 95 472 12 29 23 57 23 62 0 6 4 10 8 10 4 0 23 26 42
58 19 31 39 60 44 63 4 4 5 12 2 18 -4 6 -3 11 3 11 9 0 131 144 131 154 0 2
18 24 41 48 71 76 169 198 169 211 0 3 16 23 35 44 19 21 38 47 41 57 6 19 16
33 44 63 15 15 71 118 110 203 12 24 26 67 31 95 24 114 70 215 100 215 13 0
18 4 13 13 -19 32 56 -48 124 -133z m-2016 -138 c-25 -34 -62 -67 -47 -42 19
33 58 80 62 76 3 -3 -4 -18 -15 -34z m3933 -112 l20 -25 -22 19 c-13 11 -23
24 -23 29 0 6 1 8 3 6 1 -2 11 -15 22 -29z m-407 -1831 c78 -26 146 -89 188
-174 25 -52 29 -71 29 -145 -1 -71 -5 -94 -28 -141 -32 -67 -109 -142 -175
-171 -109 -49 -253 -31 -351 43 -28 22 -57 39 -64 39 -6 0 -50 -35 -97 -78
-241 -219 -454 -330 -786 -408 -113 -27 -131 -29 -364 -29 -219 0 -257 2 -353
23 -142 31 -298 83 -425 142 -97 46 -288 169 -360 231 -40 35 -52 36 -100 4
-139 -92 -323 -75 -438 40 -38 38 -57 68 -77 123 -66 180 -5 333 165 413 68
32 80 34 168 33 82 -1 102 -5 146 -27 98 -50 158 -146 176 -281 11 -90 19
-103 104 -171 204 -166 398 -259 662 -316 127 -27 405 -37 547 -19 248 31 530
157 730 326 39 32 80 70 91 84 38 44 84 90 90 90 4 0 17 11 30 25 16 17 27 48
35 93 6 37 20 83 29 102 24 47 98 114 143 131 21 7 37 16 37 19 0 3 14 7 32 8
18 2 34 5 37 7 12 13 124 3 179 -16z m-3808 -331 c0 -14 96 -209 144 -293 90
-156 230 -338 362 -469 299 -296 663 -496 1105 -606 209 -53 352 -70 572 -70
400 0 733 75 1069 242 469 232 815 571 1035 1013 39 77 76 155 83 173 7 18 14
31 16 29 5 -5 -40 -136 -55 -163 -6 -10 -28 -55 -49 -99 -58 -119 -119 -220
-182 -300 -17 -22 -54 -69 -81 -105 -92 -118 -309 -314 -459 -414 -192 -129
-456 -252 -659 -307 -64 -18 -121 -35 -126 -40 -6 -4 -60 -15 -120 -24 -61 -8
-117 -18 -125 -20 -8 -2 -93 -9 -188 -15 -128 -9 -211 -9 -320 0 -177 13 -225
21 -411 67 -545 134 -963 392 -1290 798 -123 153 -173 230 -248 385 -86 177
-95 200 -89 216 3 8 1 14 -4 14 -6 0 -10 5 -10 11 0 8 5 8 15 -1 8 -7 15 -17
15 -22z m-40 -135 c66 -134 110 -207 222 -369 79 -115 131 -177 228 -272 242
-239 403 -356 663 -484 202 -100 344 -149 627 -218 205 -50 606 -60 835 -21
318 54 578 139 834 272 116 60 173 95 316 193 34 24 161 135 233 204 44 42 91
94 172 188 42 48 153 212 219 323 34 57 69 110 77 118 7 8 14 17 15 21 4 37
25 88 40 98 7 4 10 3 5 -4 -3 -5 -1 -12 5 -14 14 -5 -6 -56 -31 -78 -11 -10
-20 -27 -20 -39 0 -49 -143 -286 -267 -443 -94 -119 -286 -305 -403 -391 -30
-22 -80 -59 -110 -82 -59 -45 -357 -199 -456 -236 -32 -12 -61 -25 -64 -29 -6
-8 -264 -80 -390 -109 -242 -57 -571 -71 -830 -37 -224 30 -524 115 -775 220
-115 49 -204 101 -345 201 -48 33 -97 66 -110 74 -91 51 -300 259 -434 431
-43 55 -206 305 -206 315 0 3 -17 40 -38 83 -22 43 -44 92 -49 108 -6 16 -14
37 -18 47 -4 9 -3 17 2 17 5 0 29 -39 53 -87z m4580 -383 c-11 -22 -23 -40
-25 -40 -3 0 4 18 15 40 11 22 23 40 25 40 3 0 -4 -18 -15 -40z"/>
<path d="M5060 7369 c0 -81 -107 -322 -194 -437 -24 -31 -63 -85 -87 -118 -24
-34 -90 -115 -146 -179 -129 -148 -262 -340 -296 -427 -87 -216 -84 -467 6
-637 96 -183 185 -283 321 -360 159 -91 337 -131 495 -112 151 19 245 54 388
146 107 69 152 111 206 190 22 33 50 72 63 87 12 15 35 62 52 105 111 293 74
543 -130 878 -77 127 -221 326 -357 493 -64 79 -144 179 -177 222 -34 44 -80
100 -103 126 -37 43 -41 45 -41 23z m290 -639 c41 -51 102 -125 134 -164 191
-231 296 -415 325 -571 21 -113 9 -288 -25 -374 -22 -57 -87 -79 -126 -44 -25
23 -23 37 4 19 26 -18 78 -21 78 -5 0 6 -6 9 -14 6 -7 -3 -28 4 -46 15 l-33
19 9 82 c15 137 10 209 -21 302 -48 148 -75 188 -415 608 -19 24 -21 29 -7 24
12 -5 4 13 -24 53 -23 33 -44 60 -46 60 -4 0 25 -59 41 -81 6 -8 -1 -2 -16 15
-41 44 -49 77 -30 117 21 45 31 51 70 45 23 -3 31 -1 26 7 -9 18 33 -29 116
-133z m-411 -350 c10 -5 21 -17 25 -25 3 -9 2 -13 -4 -10 -14 9 -12 -8 3 -24
10 -11 9 -12 -1 -6 -11 5 -13 -1 -11 -29 2 -19 -1 -40 -6 -45 -6 -5 -46 -23
-91 -40 -59 -23 -93 -44 -127 -76 -103 -102 -139 -191 -138 -341 1 -104 18
-163 69 -235 91 -128 192 -190 354 -216 117 -19 150 -40 143 -89 -2 -16 -4
-32 -4 -36 -1 -5 -9 -8 -18 -8 -9 0 -14 -3 -10 -6 3 -3 45 4 94 16 173 44 291
122 425 284 21 24 25 26 36 13 11 -13 -1 -29 -75 -104 -139 -139 -245 -194
-438 -227 -303 -52 -583 108 -697 399 -62 159 -46 387 38 539 35 64 49 81 69
81 5 0 10 9 10 20 0 13 27 38 85 77 125 85 218 116 269 88z"/>
<path d="M6489 5227 c-77 -51 -90 -149 -28 -213 65 -67 149 -65 212 6 45 49
55 95 32 141 -22 41 -33 52 -72 73 -45 23 -103 20 -144 -7z"/>
<path d="M3544 5176 c-17 -8 -44 -31 -60 -52 -24 -31 -29 -46 -27 -88 2 -31
10 -60 21 -76 29 -38 81 -70 117 -70 56 0 155 94 155 149 0 44 -37 106 -79
129 -44 25 -82 27 -127 8z"/>
<path d="M1670 1872 c-42 -21 -80 -75 -80 -114 0 -40 24 -82 61 -109 26 -18
35 -20 50 -11 13 8 26 9 44 2 34 -13 57 -1 84 45 41 70 18 155 -52 188 -44 21
-63 21 -107 -1z"/>
<path d="M8393 1871 c-41 -26 -63 -69 -63 -122 0 -63 50 -133 82 -113 5 3 22
1 38 -6 23 -9 34 -9 58 4 38 20 69 58 77 96 22 102 -106 195 -192 141z"/>
<path d="M3610 1756 c0 -35 1 -36 38 -36 46 0 76 19 70 46 -2 15 -13 20 -56
22 l-52 3 0 -35z"/>
<path d="M5211 1774 c-40 -33 -43 -83 -6 -119 51 -52 135 -15 135 60 0 43 -36
85 -74 85 -13 0 -38 -12 -55 -26z"/>
<path d="M6052 1770 c-27 -26 -30 -89 -4 -118 44 -52 132 -12 132 61 0 68 -78
103 -128 57z"/>
<path d="M6327 1783 c-4 -3 -7 -19 -7 -35 0 -27 2 -28 45 -28 35 0 47 5 55 21
16 29 -4 49 -50 49 -20 0 -40 -3 -43 -7z"/>
</g>
</svg>
